<?xml version="1.0" standalone="no"?>
<!DOCTYPE svg PUBLIC "-//W3C//DTD SVG 20010904//EN"
 "http://www.w3.org/TR/2001/REC-SVG-20010904/DTD/svg10.dtd">
<svg version="1.0" xmlns="http://www.w3.org/2000/svg"
 width="537.000000pt" height="542.000000pt" viewBox="0 0 537.000000 542.000000"
 preserveAspectRatio="xMidYMid meet">

<g transform="translate(0.000000,542.000000) scale(0.100000,-0.100000)"
fill="#000000" stroke="none">
<path d="M4108 5231 c-31 -10 -72 -28 -91 -40 -54 -33 -126 -116 -155 -179
-24 -50 -27 -69 -27 -162 0 -98 2 -109 32 -171 51 -103 162 -193 263 -214 77
-15 70 17 70 -316 l0 -299 -195 0 -195 0 0 85 0 85 -325 0 -325 0 0 424 0 424
30 12 c16 7 45 29 64 50 123 137 -39 344 -204 260 -21 -11 -48 -34 -61 -51
-23 -33 -36 -110 -25 -153 9 -38 62 -93 101 -106 l35 -12 0 -424 0 -424 -616
0 -617 0 7 38 c3 20 6 111 6 202 l0 166 68 17 c190 49 311 218 300 418 -15
258 -269 435 -515 361 -249 -76 -362 -349 -242 -583 48 -94 180 -189 286 -205
l43 -6 0 -204 0 -204 -135 0 -135 0 0 223 c0 160 -3 226 -12 235 -8 8 -53 12
-135 12 l-123 0 0 199 c0 168 -2 202 -16 215 -12 13 -41 16 -154 16 l-139 0
-19 43 c-37 83 -129 136 -212 122 -60 -10 -124 -56 -149 -107 -73 -152 58
-321 222 -286 58 12 123 69 142 123 l13 40 126 3 126 3 0 -200 c0 -110 3 -206
6 -215 5 -13 27 -16 135 -16 l129 0 0 -205 0 -205 -30 0 -30 0 0 -190 0 -190
-205 0 -205 0 0 108 0 108 35 12 c18 7 45 26 59 43 95 112 9 280 -136 267 -84
-9 -139 -65 -145 -150 -5 -69 25 -123 84 -152 l42 -21 1 -125 c0 -84 4 -130
12 -138 9 -9 75 -12 235 -12 l223 0 0 -165 0 -165 -264 0 -265 0 -16 58 c-47
167 -208 277 -374 258 -117 -14 -220 -86 -272 -191 -88 -180 -12 -394 170
-479 66 -30 216 -30 282 0 96 45 166 129 195 234 l17 60 264 0 263 0 0 -507 0
-506 -97 6 c-54 4 -159 7 -233 7 l-135 0 -25 52 c-74 153 -282 155 -351 3 -68
-149 61 -308 221 -274 61 13 114 58 136 114 l17 45 202 0 c111 0 217 -3 234
-6 l31 -6 0 -244 0 -244 225 0 225 0 0 -150 0 -150 -644 0 -643 0 -6 29 c-7
35 -59 96 -98 117 -36 18 -122 18 -157 0 -36 -19 -78 -65 -91 -99 -25 -66 -4
-164 46 -209 26 -24 87 -48 120 -48 80 0 167 59 180 121 l6 29 641 -2 641 -3
3 -283 2 -282 -99 0 -98 0 -7 48 c-13 102 -95 226 -193 294 -93 63 -242 88
-353 58 -205 -54 -342 -247 -327 -460 12 -173 117 -318 277 -382 45 -19 75
-23 165 -23 103 0 114 2 178 32 129 61 236 199 253 324 l7 49 116 0 c78 0 121
4 129 12 9 9 12 92 12 310 l0 298 220 0 220 0 0 -109 0 -110 -42 -23 c-63 -35
-83 -69 -83 -138 0 -66 18 -99 75 -138 93 -63 227 7 237 125 5 65 -26 121 -84
148 l-42 20 -1 113 0 112 98 0 c63 0 102 4 110 12 8 8 12 64 12 185 l0 173
115 0 115 0 2 -512 3 -513 310 -5 309 -5 8 -45 c12 -68 64 -165 118 -219 196
-196 534 -141 659 106 82 163 55 346 -70 478 -158 167 -415 173 -584 14 -63
-59 -112 -148 -121 -220 l-7 -49 -283 0 -284 0 0 485 0 485 430 0 429 0 3 147
3 148 402 3 401 2 22 -45 c29 -59 70 -88 135 -93 103 -8 179 61 179 162 0 102
-76 172 -179 164 -66 -6 -106 -34 -136 -95 l-22 -46 -180 6 c-99 4 -281 7
-404 7 l-223 0 0 240 0 240 298 0 297 0 20 -37 c52 -98 168 -111 244 -29 35
37 41 127 11 174 -26 42 -99 76 -144 68 -48 -9 -95 -42 -113 -81 l-17 -35
-298 0 -298 0 0 480 0 480 348 0 349 0 17 -62 c93 -336 538 -374 684 -60 22
48 27 71 27 147 0 77 -4 98 -27 147 -35 76 -104 148 -175 184 -53 26 -67 29
-158 29 -90 0 -105 -3 -153 -28 -30 -16 -74 -46 -98 -69 -43 -39 -104 -144
-104 -179 0 -51 14 -49 -361 -49 l-349 0 0 120 0 120 213 0 c152 0 216 3 225
12 9 9 12 96 12 330 l0 318 28 6 c48 10 116 37 152 59 53 34 119 110 148 173
24 50 27 69 27 162 0 99 -2 109 -33 170 -17 36 -43 77 -56 92 -105 117 -273
165 -418 119z m257 -72 c74 -34 147 -112 174 -184 18 -48 22 -76 19 -140 -5
-133 -68 -229 -186 -287 -59 -29 -76 -33 -147 -33 -133 1 -234 61 -295 176
-124 234 51 510 315 496 46 -3 87 -12 120 -28z m-2372 -12 c65 -32 140 -109
170 -175 33 -72 31 -207 -4 -283 -56 -119 -161 -190 -294 -197 -113 -6 -179
20 -262 103 -53 53 -64 71 -83 134 -57 185 36 368 221 435 67 25 182 17 252
-17z m-1144 -144 c14 -11 34 -35 43 -54 63 -122 -68 -248 -190 -185 -99 51
-94 196 8 249 42 22 101 17 139 -10z m963 -1050 c2 -5 2 -77 0 -160 l-4 -153
-159 0 -159 0 0 160 0 160 159 0 c88 0 161 -3 163 -7z m1288 -198 l0 -205
-238 0 c-172 0 -241 -3 -250 -12 -8 -8 -12 -57 -12 -155 l0 -143 -155 0 -155
0 0 190 c0 177 -1 190 -19 200 -12 6 -98 10 -210 10 l-191 0 0 153 c0 85 3
157 7 160 3 4 280 7 615 7 l608 0 0 -205z m650 150 l0 -55 -177 -2 -178 -3 -3
-147 -3 -148 -114 0 -115 0 0 205 0 205 295 0 295 0 0 -55z m1257 -113 c65
-34 110 -78 140 -140 38 -77 40 -193 5 -264 -30 -60 -89 -120 -150 -149 -67
-33 -188 -33 -252 0 -250 130 -233 470 29 568 53 20 175 12 228 -15z m-1257
-122 l0 -120 -150 0 -150 0 0 120 0 120 150 0 150 0 0 -120z m-1940 -261 l0
-172 -61 7 c-34 3 -106 6 -160 6 l-99 0 0 165 0 165 160 0 160 0 0 -171z m415
1 l0 -165 -175 0 -175 0 -3 155 c-1 85 0 160 3 167 3 11 42 13 177 11 l173 -3
0 -165z m-1555 70 c61 -30 106 -75 138 -135 36 -68 38 -188 5 -251 -36 -67
-70 -101 -135 -133 -50 -25 -73 -31 -128 -31 -197 0 -331 183 -276 375 23 76
108 166 182 189 65 21 157 15 214 -14z m2430 -115 l0 -125 -220 0 -220 0 0
125 0 125 220 0 220 0 0 -125z m650 -355 l0 -480 -295 0 -295 0 0 480 0 480
295 0 295 0 0 -480z m-1940 -168 c0 -368 0 -372 47 -372 23 0 23 0 23 -145 l0
-145 -195 0 -195 0 0 505 0 505 160 0 160 0 0 -348z m420 13 l0 -325 -180 0
-180 0 0 325 0 325 180 0 180 0 0 -325z m370 0 l0 -325 -155 0 -155 0 0 325 0
325 155 0 155 0 0 -325z m500 0 l0 -325 -220 0 -220 0 0 325 0 325 220 0 220
0 0 -325z m-500 -530 l0 -145 -330 0 -330 0 0 145 0 145 330 0 330 0 0 -145z
m290 -245 l0 -390 -115 0 -115 0 0 390 0 390 115 0 115 0 0 -390z m212 123 l3
-268 323 -3 322 -2 0 -120 0 -120 -400 0 -400 0 0 390 0 390 75 0 75 0 2 -267z
m648 27 l0 -240 -295 0 -295 0 0 240 0 240 295 0 295 0 0 -240z m-2893 27 c89
-89 32 -230 -93 -230 -74 0 -134 61 -134 137 0 120 142 178 227 93z m1023
-352 l0 -215 -195 0 -195 0 0 215 0 215 195 0 195 0 0 -215z m720 0 l0 -215
-330 0 -330 0 0 215 0 215 330 0 330 0 0 -215z m2262 126 c28 -25 33 -36 33
-76 0 -40 -5 -51 -33 -76 -24 -22 -42 -29 -72 -29 -30 0 -48 7 -72 29 -28 25
-33 36 -33 76 0 40 5 51 33 76 24 22 42 29 72 29 30 0 48 -7 72 -29z m-2487
-556 l0 -150 -217 -3 -218 -2 0 155 0 155 218 -2 217 -3 0 -150z m225 0 l0
-155 -80 0 -80 0 0 155 0 155 80 0 80 0 0 -155z m-1222 -447 c102 -38 182
-119 222 -225 32 -85 26 -216 -15 -298 -37 -76 -104 -143 -180 -181 -55 -26
-69 -29 -165 -29 -99 0 -109 2 -165 32 -211 111 -278 365 -147 561 96 146 279
203 450 140z m2672 -64 c146 -48 254 -218 235 -373 -15 -123 -96 -236 -208
-287 -53 -25 -75 -29 -147 -29 -71 0 -94 4 -142 27 -231 108 -286 401 -108
578 99 99 233 130 370 84z"/>
<path d="M4135 5104 c-96 -34 -164 -124 -172 -228 -10 -115 38 -206 136 -259
180 -99 391 27 391 234 0 185 -182 315 -355 253z m182 -69 c32 -16 61 -41 79
-67 26 -37 29 -50 29 -118 0 -67 -4 -82 -28 -118 -65 -99 -213 -119 -303 -40
-56 49 -77 100 -72 174 3 47 10 71 32 103 34 49 113 91 171 91 24 0 62 -11 92
-25z"/>
<path d="M454 3427 c-148 -71 -180 -262 -63 -374 45 -43 97 -63 161 -63 68 0
123 26 170 78 162 179 -50 463 -268 359z m159 -51 c72 -30 117 -113 104 -192
-23 -139 -216 -183 -302 -69 -64 83 -36 208 57 254 50 24 95 27 141 7z"/>
<path d="M3858 887 c-133 -38 -219 -179 -189 -312 36 -160 198 -252 352 -200
130 45 205 192 165 327 -40 138 -190 223 -328 185z m170 -76 c47 -24 66 -45
91 -101 78 -172 -102 -349 -275 -271 -79 36 -133 135 -120 218 25 145 173 221
304 154z"/>
</g>
</svg>
